<mxfile host="65bd71144e" scale="1" border="15">
    <diagram id="iHSKFaC4ZJmlfxs5XxO0" name="Page-1">
        <mxGraphModel dx="591" dy="520" grid="1" gridSize="10" guides="1" tooltips="1" connect="1" arrows="1" fold="1" page="1" pageScale="1" pageWidth="827" pageHeight="1169" background="#ffffff" math="0" shadow="0">
            <root>
                <mxCell id="0"/>
                <mxCell id="1" parent="0"/>
                <mxCell id="7" value="&lt;p style=&quot;line-height: 120%; font-size: 12px;&quot;&gt;Azure AD B2C&lt;/p&gt;" style="shape=cube;whiteSpace=wrap;html=1;boundedLbl=1;backgroundOutline=1;darkOpacity=0.05;darkOpacity2=0.1;rotation=0;flipV=0;flipH=1;size=10;spacing=5;verticalAlign=top;horizontal=1;fontSize=12;" parent="1" vertex="1">
                    <mxGeometry x="806.25" y="301" width="193.75" height="159" as="geometry"/>
                </mxCell>
                <mxCell id="28" style="edgeStyle=none;rounded=1;html=1;strokeColor=#CC0000;fontSize=12;endArrow=none;endFill=0;endSize=8;startArrow=none;startFill=0;entryX=0;entryY=0;entryDx=197.5;entryDy=80;entryPerimeter=0;exitX=0;exitY=0;exitDx=0;exitDy=82.5;exitPerimeter=0;" parent="1" source="11" target="13" edge="1">
                    <mxGeometry relative="1" as="geometry">
                        <mxPoint x="800" y="160" as="targetPoint"/>
                    </mxGeometry>
                </mxCell>
                <mxCell id="29" style="edgeStyle=none;rounded=1;html=1;entryX=0;entryY=0;entryDx=190;entryDy=80;entryPerimeter=0;strokeColor=#CC0000;fontSize=12;endArrow=none;endFill=0;endSize=8;startArrow=none;startFill=0;exitX=0;exitY=0;exitDx=0;exitDy=82.5;exitPerimeter=0;" parent="1" source="11" target="7" edge="1">
                    <mxGeometry relative="1" as="geometry"/>
                </mxCell>
                <mxCell id="11" value="&lt;p style=&quot;line-height: 120%; font-size: 12px;&quot;&gt;Azure App Service&lt;/p&gt;" style="shape=cube;whiteSpace=wrap;html=1;boundedLbl=1;backgroundOutline=1;darkOpacity=0.05;darkOpacity2=0.1;rotation=0;flipV=0;flipH=1;size=10;spacing=5;verticalAlign=top;horizontal=1;fontSize=12;" parent="1" vertex="1">
                    <mxGeometry x="450" y="215" width="250" height="175" as="geometry"/>
                </mxCell>
                <mxCell id="12" value="&lt;&lt;Web Server&gt;&gt;&#10;bdsagroup4chirprazor" style="shape=module;align=left;spacingLeft=20;align=center;verticalAlign=top;fontSize=12;fontStyle=2" parent="1" vertex="1">
                    <mxGeometry x="540" y="285" width="140" height="60" as="geometry"/>
                </mxCell>
                <mxCell id="13" value="&lt;p style=&quot;line-height: 120%; font-size: 12px;&quot;&gt;Azure SQL server&lt;/p&gt;" style="shape=cube;whiteSpace=wrap;html=1;boundedLbl=1;backgroundOutline=1;darkOpacity=0.05;darkOpacity2=0.1;rotation=0;flipV=0;flipH=1;size=10;spacing=5;verticalAlign=top;horizontal=1;fontSize=12;" parent="1" vertex="1">
                    <mxGeometry x="802.5" y="100" width="197.5" height="150" as="geometry"/>
                </mxCell>
                <mxCell id="14" value="&lt;&lt;sql server&gt;&gt;&#10;chirp4db" style="shape=module;align=left;spacingLeft=20;align=center;verticalAlign=top;fontSize=12;fontStyle=2" parent="1" vertex="1">
                    <mxGeometry x="880" y="170.5" width="100" height="43" as="geometry"/>
                </mxCell>
                <mxCell id="15" value="&lt;&lt;B2C Tenant&gt;&gt;&#10;Chirp4" style="shape=module;align=center;spacingLeft=20;align=center;verticalAlign=top;fontSize=12;fontStyle=2" parent="1" vertex="1">
                    <mxGeometry x="875" y="365" width="110" height="50" as="geometry"/>
                </mxCell>
                <mxCell id="27" value="&lt;i&gt;&amp;lt;&amp;lt;HTTP&amp;gt;&amp;gt;&lt;/i&gt;" style="text;html=1;align=center;verticalAlign=middle;resizable=0;points=[];autosize=1;strokeColor=none;fillColor=none;fontSize=12;" parent="1" vertex="1">
                    <mxGeometry x="340" y="312.25" width="80" height="30" as="geometry"/>
                </mxCell>
                <mxCell id="41" value="" style="aspect=fixed;html=1;points=[];align=center;image;fontSize=12;image=img/lib/azure2/app_services/App_Services.svg;" parent="1" vertex="1">
                    <mxGeometry x="460" y="281" width="64" height="64" as="geometry"/>
                </mxCell>
                <mxCell id="42" value="" style="aspect=fixed;html=1;points=[];align=center;image;fontSize=12;image=img/lib/azure2/databases/SQL_Database.svg;" parent="1" vertex="1">
                    <mxGeometry x="822" y="160" width="48" height="64" as="geometry"/>
                </mxCell>
                <mxCell id="43" value="" style="aspect=fixed;html=1;points=[];align=center;image;fontSize=12;image=img/lib/azure2/identity/Azure_AD_B2C.svg;" parent="1" vertex="1">
                    <mxGeometry x="811.5" y="360" width="61.45" height="57" as="geometry"/>
                </mxCell>
                <mxCell id="51" style="edgeStyle=none;html=1;fontSize=15;fontColor=#000000;startArrow=none;startFill=0;endArrow=none;endFill=0;fillColor=#e51400;strokeColor=#CC0000;entryX=0.994;entryY=0.543;entryDx=0;entryDy=0;entryPerimeter=0;rounded=0;exitX=1.013;exitY=0.6;exitDx=0;exitDy=0;exitPerimeter=0;" parent="1" source="44" target="11" edge="1">
                    <mxGeometry relative="1" as="geometry">
                        <mxPoint x="320" y="320" as="targetPoint"/>
                        <Array as="points">
                            <mxPoint x="320" y="310"/>
                        </Array>
                    </mxGeometry>
                </mxCell>
                <mxCell id="44" value="" style="aspect=fixed;html=1;points=[];align=center;image;fontSize=12;image=img/lib/azure2/identity/Users.svg;" parent="1" vertex="1">
                    <mxGeometry x="180" y="267.5" width="63.99" height="70" as="geometry"/>
                </mxCell>
                <mxCell id="45" value="&lt;i&gt;&amp;lt;&amp;lt;TCP&amp;gt;&amp;gt;&lt;/i&gt;" style="text;html=1;align=center;verticalAlign=middle;resizable=0;points=[];autosize=1;strokeColor=none;fillColor=none;fontSize=10;rotation=310;" parent="1" vertex="1">
                    <mxGeometry x="713" y="217" width="70" height="30" as="geometry"/>
                </mxCell>
                <mxCell id="46" value="&lt;i&gt;&lt;font style=&quot;font-size: 9px;&quot;&gt;&amp;lt;&amp;lt;OIDC&amp;gt;&amp;gt;&lt;/font&gt;&lt;/i&gt;" style="text;html=1;align=center;verticalAlign=middle;resizable=0;points=[];autosize=1;strokeColor=none;fillColor=none;fontSize=10;rotation=38;" parent="1" vertex="1">
                    <mxGeometry x="727" y="320" width="70" height="30" as="geometry"/>
                </mxCell>
                <mxCell id="52" style="edgeStyle=none;html=1;fontSize=15;fontColor=#000000;startArrow=none;startFill=0;endArrow=none;endFill=0;fillColor=#e51400;strokeColor=#CC0000;entryX=0.994;entryY=0.545;entryDx=0;entryDy=0;entryPerimeter=0;rounded=0;" parent="1" target="11" edge="1">
                    <mxGeometry relative="1" as="geometry">
                        <mxPoint x="320" y="320" as="targetPoint"/>
                        <mxPoint x="250" y="420" as="sourcePoint"/>
                        <Array as="points">
                            <mxPoint x="320" y="310"/>
                        </Array>
                    </mxGeometry>
                </mxCell>
                <mxCell id="47" value="" style="aspect=fixed;html=1;points=[];align=center;image;fontSize=12;image=img/lib/azure2/identity/Users.svg;" parent="1" vertex="1">
                    <mxGeometry x="180" y="377.25" width="63.99" height="70" as="geometry"/>
                </mxCell>
                <mxCell id="50" style="edgeStyle=none;html=1;fontSize=15;fontColor=#000000;startArrow=none;startFill=0;endArrow=none;endFill=0;fillColor=#e51400;strokeColor=#CC0000;entryX=0.995;entryY=0.543;entryDx=0;entryDy=0;entryPerimeter=0;rounded=0;" parent="1" source="48" target="11" edge="1">
                    <mxGeometry relative="1" as="geometry">
                        <mxPoint x="320" y="320" as="targetPoint"/>
                        <Array as="points">
                            <mxPoint x="320" y="310"/>
                        </Array>
                    </mxGeometry>
                </mxCell>
                <mxCell id="48" value="" style="aspect=fixed;html=1;points=[];align=center;image;fontSize=12;image=img/lib/azure2/identity/Users.svg;" parent="1" vertex="1">
                    <mxGeometry x="180" y="157" width="63.99" height="70" as="geometry"/>
                </mxCell>
                <mxCell id="49" value="&lt;font style=&quot;font-size: 15px;&quot; color=&quot;#000000&quot;&gt;Clients&lt;/font&gt;" style="text;html=1;align=center;verticalAlign=middle;resizable=0;points=[];autosize=1;strokeColor=#6c8ebf;fillColor=#dae8fc;" parent="1" vertex="1">
                    <mxGeometry x="176.99" y="110" width="70" height="30" as="geometry"/>
                </mxCell>
            </root>
        </mxGraphModel>
    </diagram>
</mxfile>